<?xml version="1.0" encoding="UTF-8" standalone="no"?>
<svg
   xmlns:dc="http://purl.org/dc/elements/1.1/"
   xmlns:cc="http://creativecommons.org/ns#"
   xmlns:rdf="http://www.w3.org/1999/02/22-rdf-syntax-ns#"
   xmlns:svg="http://www.w3.org/2000/svg"
   xmlns="http://www.w3.org/2000/svg"
   xmlns:sodipodi="http://sodipodi.sourceforge.net/DTD/sodipodi-0.dtd"
   xmlns:inkscape="http://www.inkscape.org/namespaces/inkscape"
   version="1.1"
   id="svg2"
   xml:space="preserve"
   width="1016.08"
   height="377.94666"
   viewBox="0 0 1016.08 377.94666"
   sodipodi:docname="NTT_Horizontal_RGB.eps"><metadata
     id="metadata8"><rdf:RDF><cc:Work
         rdf:about=""><dc:format>image/svg+xml</dc:format><dc:type
           rdf:resource="http://purl.org/dc/dcmitype/StillImage" /></cc:Work></rdf:RDF></metadata><defs
     id="defs6" /><sodipodi:namedview
     pagecolor="#ffffff"
     bordercolor="#666666"
     borderopacity="1"
     objecttolerance="10"
     gridtolerance="10"
     guidetolerance="10"
     inkscape:pageopacity="0"
     inkscape:pageshadow="2"
     inkscape:window-width="640"
     inkscape:window-height="480"
     id="namedview4" /><g
     id="g10"
     inkscape:groupmode="layer"
     inkscape:label="ink_ext_XXXXXX"
     transform="matrix(1.3333333,0,0,-1.3333333,0,377.94667)"><g
       id="g12"
       transform="scale(0.1)"><path
         d="m 1498.06,368.621 c -618.372,0 -1129.853,497.34 -1129.853,1135.219 0,582.35 420.266,980.21 750.493,965.38 -156.434,-155.88 -251.274,-382.95 -251.274,-602.87 0,-378.07 300.074,-643.19 630.634,-643.19 330.62,0 630.64,265.12 630.64,643.19 0,219.92 -94.91,446.99 -251.26,602.87 330.26,14.83 750.49,-383.03 750.49,-965.38 0,-637.879 -511.6,-1135.219 -1129.87,-1135.219 z m 0,2006.439 c 114.97,-68.37 266.77,-266.58 266.77,-490.06 0,-163.95 -108.16,-292.99 -266.77,-292.99 -158.55,0 -266.8,129.04 -266.8,292.99 0,223.48 151.89,421.69 266.8,490.06 z m 362.87,459.59 c -135.29,0 -268.84,-29.37 -362.87,-67.92 -94.01,38.55 -227.48,67.92 -362.9,67.92 C 538.652,2834.65 0,2270.52 0,1496.51 0,652.578 689.422,0 1498.06,0 c 808.59,0 1498.16,652.578 1498.16,1496.51 0,774.01 -538.75,1338.14 -1135.29,1338.14 v 0"
         style="fill:#3970c0;fill-opacity:1;fill-rule:evenodd;stroke:none"
         id="path14" /><path
         d="M 7620.6,2125.99 H 6385.73 v -545.12 h 280.45 v 264.7 h 150.96 V 986.941 h -204.96 v -280.3 h 782.49 v 280.3 H 7189.6 v 858.629 h 151.04 v -264.7 H 7620.6 Z M 6290.09,1580.87 v 545.12 H 5054.74 v -545.12 h 280.44 v 264.7 h 151.23 V 986.941 h -205.02 v -280.3 h 782.09 v 280.3 h -204.83 v 858.629 h 151.22 v -264.7 h 280.22 z m -1977.07,545.12 v -280.44 h 156.82 v -516.13 l -421.02,796.57 h -485.67 v -280.44 h 156.59 V 986.941 H 3563.15 V 706.648 h 642.38 V 986.941 H 4048.82 V 1502.8 l 421.02,-796.152 h 328.74 V 1845.55 h 156.89 v 280.44 h -642.45 v 0"
         style="fill:#050301;fill-opacity:1;fill-rule:evenodd;stroke:none"
         id="path16" /></g></g></svg>
